<svg width="240" height="64" viewBox="0 0 240 64" fill="none" xmlns="http://www.w3.org/2000/svg">
<path fill-rule="evenodd" clip-rule="evenodd" d="M57.643 32.2877C57.6421 35.9309 56.9026 39.4215 55.339 42.7181C53.6915 46.1918 51.1931 48.9152 47.8738 50.8809C45.9139 52.0416 43.806 52.8086 41.5556 53.1806C40.6399 53.3318 39.7164 53.4596 38.7886 53.4236C36.8456 53.3479 34.9388 53.0414 33.1044 52.3726C32.6606 52.2107 32.2316 52.0087 31.7933 51.8317C31.7346 51.808 31.6527 51.8001 31.5952 51.8214C30.0406 52.3997 28.443 52.8167 26.8065 53.0858C25.7955 53.2521 24.7785 53.3942 23.7539 53.4005C22.9403 53.4054 22.1249 53.3429 21.3124 53.2829C20.0088 53.1869 18.7293 52.9426 17.4698 52.5966C15.2179 51.9776 13.1251 51.0134 11.1661 49.7467C8.10226 47.766 5.73244 45.1597 3.98902 41.97C2.68699 39.5881 1.7945 37.068 1.33519 34.3958C1.15877 33.3697 1.0502 32.3354 1.01531 31.2948C0.881574 27.3169 1.62156 23.5054 3.3337 19.9098C5.15524 16.0847 7.97687 13.1879 11.758 11.235C13.4208 10.3762 15.1813 9.80158 17.0295 9.502C17.9654 9.35027 18.9096 9.22803 19.858 9.25461C21.2866 9.29489 22.6899 9.53535 24.091 9.8215C25.071 10.0217 25.9768 10.3848 26.8814 10.7774C26.9338 10.8003 27.0115 10.7971 27.0667 10.7769C28.3685 10.2992 29.6987 9.9227 31.0604 9.65815C32.066 9.46281 33.0803 9.33435 34.101 9.2409C35.1323 9.14621 36.1573 9.22262 37.1834 9.30222C39.1498 9.45492 41.0588 9.87439 42.9077 10.5562C45.812 11.6273 48.3987 13.2119 50.6454 15.339C52.4034 17.0035 53.7897 18.9426 54.9086 21.0787C56.0572 23.2713 56.8526 25.5839 57.2892 28.0176C57.4836 29.1024 57.6092 30.196 57.6414 31.2985C57.651 31.628 57.643 31.958 57.643 32.2877V32.2877ZM29.7144 12.4214C29.9042 12.5957 30.0675 12.7643 30.2496 12.9099C31.1189 13.6053 31.916 14.3738 32.6356 15.2218C33.9781 16.8042 34.991 18.5767 35.7123 20.517C35.7465 20.609 35.7788 20.6658 35.8958 20.6796C36.3507 20.7336 36.8103 20.7746 37.256 20.874C40.9206 21.6918 43.6089 23.7804 45.3108 27.1058C46.2698 28.9801 46.6877 30.9863 46.6272 33.0917C46.5985 34.1007 46.4543 35.0912 46.2003 36.0672C45.8494 37.4153 45.2804 38.6774 44.6597 39.9174C43.4757 42.2829 41.9132 44.3793 40.0503 46.2546C38.4897 47.8258 36.7369 49.1549 34.8316 50.2863C34.7816 50.3161 34.7334 50.3489 34.6637 50.3933C34.7275 50.4182 34.763 50.4349 34.8001 50.4456C35.9791 50.7902 37.1831 50.981 38.4105 51.0236C39.5308 51.0625 40.6424 50.9719 41.7397 50.7499C44.966 50.0971 47.6956 48.5446 49.9652 46.1848C51.6002 44.4849 52.8127 42.5116 53.692 40.3322C54.6975 37.8401 55.2061 35.2418 55.2987 32.565C55.3242 31.8331 55.2478 31.0949 55.181 30.3631C55.0757 29.2152 54.8541 28.0854 54.5856 26.9643C53.9633 24.3683 52.8548 21.9891 51.3473 19.7924C50.6696 18.8048 49.875 17.9106 49.0099 17.0798C47.3692 15.505 45.5308 14.2213 43.4299 13.3239C41.8314 12.6411 40.1711 12.1668 38.4604 11.8669C37.5222 11.7026 36.5795 11.5689 35.6229 11.5626C34.5045 11.5553 33.3913 11.6245 32.2882 11.8053C31.4225 11.9472 30.5534 12.0865 29.7144 12.4214V12.4214ZM23.9581 12.2363C23.8674 12.2075 23.8006 12.1844 23.7329 12.165C22.7948 11.8975 21.8384 11.7292 20.866 11.6561C20.0513 11.5946 19.2341 11.582 18.4235 11.6874C17.1585 11.8517 15.9207 12.1416 14.7157 12.5628C12.0562 13.4927 9.78937 14.9977 7.96463 17.1459C6.32354 19.078 5.22294 21.2969 4.47266 23.7004C4.05617 25.0346 3.76785 26.3971 3.56168 27.778C3.395 28.8945 3.29269 30.0154 3.36943 31.145C3.4641 32.5389 3.6722 33.9172 3.98596 35.279C4.36381 36.9193 4.87734 38.5153 5.62818 40.0268C6.69875 42.1819 8.11186 44.0887 9.87112 45.7371C11.1741 46.958 12.6116 47.9961 14.208 48.8038C15.7959 49.6073 17.4744 50.1629 19.2122 50.5406C20.8856 50.9044 22.5723 51.1204 24.2923 51.0135C25.5976 50.9324 26.8853 50.7527 28.1535 50.4362C28.4328 50.3666 28.7102 50.2892 29.0128 50.2088C28.96 50.1657 28.9341 50.1423 28.9059 50.122C26.9855 48.7352 25.4599 46.999 24.2805 44.9541C23.7568 44.0461 23.3107 43.1026 22.9469 42.1204C22.9183 42.043 22.8977 41.9786 22.7878 41.9703C21.8028 41.895 20.8423 41.6954 19.9137 41.3602C17.774 40.5877 15.961 39.3524 14.5819 37.5347C13.161 35.6622 12.3387 33.5475 12.0968 31.2117C11.949 29.786 12.0305 28.3715 12.3674 26.9784C12.814 25.1328 13.5369 23.3916 14.4762 21.7441C16.5314 18.1397 19.34 15.2371 22.8075 12.958C23.1767 12.7151 23.5561 12.4878 23.9581 12.2363V12.2363ZM24.3281 35.9051C24.3281 36.1484 24.3213 36.392 24.3292 36.6352C24.3599 37.5705 24.4778 38.4952 24.6648 39.4121C24.6874 39.5227 24.7232 39.559 24.8348 39.5331C25.2707 39.4316 25.7127 39.3526 26.1438 39.2339C28.0269 38.7149 29.6863 37.8024 31.0658 36.4115C32.0844 35.3847 32.8142 34.1732 33.3365 32.8338C34.0606 30.9764 34.4833 29.0605 34.4334 27.0579C34.4208 26.5561 34.4057 26.052 34.3472 25.5542C34.255 24.7691 34.1246 23.9884 34.0119 23.2057C34 23.1232 33.9597 23.0939 33.8778 23.1051C33.7163 23.1271 33.5541 23.1434 33.3925 23.1647C31.9431 23.3569 30.6197 23.8723 29.4054 24.6828C27.7245 25.8046 26.5395 27.3295 25.7118 29.1476C24.7346 31.2944 24.3267 33.5601 24.3281 35.9051ZM22.1858 39.5072C22.1744 39.4121 22.1719 39.3666 22.1632 39.3221C21.7939 37.4499 21.73 35.5668 21.9509 33.6722C22.1381 32.0671 22.5292 30.513 23.1181 29.0084C23.3438 28.4315 23.4984 27.8438 23.4657 27.2168C23.4396 26.7133 23.3844 26.217 23.2086 25.7391C22.4933 23.7948 20.6495 22.749 18.7504 23.0381C17.0184 23.3018 15.7609 24.2916 15.1449 25.9646C14.6829 27.2192 14.4211 28.5241 14.4173 29.865C14.4135 31.0961 14.6048 32.3047 15.0314 33.4626C16.0684 36.2768 17.9761 38.2221 20.8629 39.1621C21.286 39.2998 21.7251 39.3884 22.1858 39.5072V39.5072ZM36.4779 23.1473C36.488 23.2298 36.4901 23.2701 36.4979 23.3093C36.727 24.4367 36.8338 25.577 36.8434 26.7258C36.8516 27.681 36.7622 28.6304 36.6451 29.5783C36.474 30.9638 36.1541 32.3107 35.6328 33.6081C35.5195 33.89 35.363 34.1614 35.295 34.4534C35.0532 35.4913 35.1909 36.4951 35.6937 37.4329C36.4163 38.7799 37.5546 39.5402 39.085 39.6526C40.286 39.7408 41.3397 39.3321 42.2445 38.549C42.6669 38.1835 43.0517 37.7704 43.2605 37.2496C43.8063 35.8891 44.1429 34.4748 44.1944 33.0067C44.2357 31.8369 44.0532 30.6905 43.7176 29.57C43.2762 28.0952 42.5413 26.7875 41.4501 25.6896C40.3274 24.5601 38.9817 23.8083 37.4498 23.3821C37.1381 23.2953 36.8206 23.2294 36.4779 23.1473V23.1473ZM25.4284 41.892C25.4284 41.917 25.4249 41.9328 25.4291 41.9462C25.4395 41.9801 25.4524 42.0132 25.4659 42.0462C25.9532 43.2255 26.5835 44.3231 27.362 45.3362C28.545 46.8755 29.9747 48.1352 31.66 49.1067C31.7374 49.1514 31.8029 49.1759 31.898 49.1317C32.9666 48.6356 33.9987 48.0738 34.9695 47.4072C36.9393 46.0548 38.6638 44.4388 40.1556 42.5764C40.3323 42.3557 40.501 42.1288 40.6699 41.9094C37.0816 42.3498 34.6056 40.9034 33.1687 37.6152C32.1795 38.7472 31.0231 39.6992 29.695 40.4393C28.3622 41.1822 26.9405 41.6692 25.4284 41.892V41.892ZM33.2146 20.7614C33.1851 20.683 33.1691 20.6298 33.1458 20.5801C32.9268 20.1169 32.7239 19.6452 32.4841 19.193C31.2037 16.7769 29.3624 14.8994 26.9832 13.5419C26.895 13.4915 26.8238 13.4828 26.7308 13.5312C26.5144 13.6438 26.29 13.7411 26.0722 13.851C22.8617 15.4703 20.2048 17.7392 18.069 20.6189C18.0373 20.6615 18.0085 20.7064 17.9565 20.7819C19.6013 20.4725 21.1172 20.7083 22.5555 21.4992C24.0033 22.2954 24.967 23.4729 25.4741 25.0764C27.5159 22.6373 30.0951 21.2332 33.2146 20.7614V20.7614Z" fill="#8FB3FF" stroke="#8FB3FF" stroke-width="1.6231" stroke-miterlimit="22.9256"/>
<path d="M83.7656 21.451C82.6676 21.451 81.6399 21.6099 80.6823 21.9278C79.7248 22.2456 78.863 22.6843 78.097 23.2437C77.3438 23.8031 76.6799 24.4642 76.1054 25.227C75.5436 25.9899 75.0712 26.8226 74.6882 27.7253C74.3052 28.6153 74.0179 29.5561 73.8264 30.5478C73.6349 31.5268 73.5392 32.5184 73.5392 33.5228C73.5392 34.8069 73.7115 35.8685 74.0562 36.7077C74.4137 37.5468 74.8989 38.2142 75.5117 38.7101C76.1245 39.1932 76.8395 39.5365 77.6565 39.7399C78.4864 39.9306 79.3673 40.026 80.2993 40.026C81.3207 40.0387 82.3676 39.9497 83.44 39.759C84.5252 39.5556 85.6104 39.2695 86.6956 38.9008L85.853 43.0201C84.8189 43.3761 83.7081 43.624 82.5208 43.7639C81.3335 43.9037 80.261 43.9736 79.3035 43.9736C77.7587 43.9736 76.3415 43.7829 75.0521 43.4015C73.7754 43.0074 72.6774 42.4035 71.7582 41.5898C70.8389 40.7761 70.124 39.7336 69.6133 38.4622C69.1026 37.1908 68.8473 35.6778 68.8473 33.9233C68.8473 32.6774 68.9686 31.406 69.2112 30.1092C69.4665 28.8123 69.8495 27.56 70.3602 26.3522C70.8836 25.1317 71.5348 23.9874 72.3135 22.9195C73.1051 21.8388 74.0435 20.898 75.1287 20.097C76.2139 19.296 77.4714 18.6667 78.9013 18.209C80.3312 17.7386 81.8761 17.5034 83.5358 17.5034C84.4422 17.5034 85.4764 17.586 86.6382 17.7513C87.8127 17.9166 88.9043 18.1645 89.9129 18.495L89.1277 22.3092C88.1702 22.0295 87.2701 21.8197 86.4275 21.6799C85.5849 21.5273 84.6976 21.451 83.7656 21.451Z" fill="#8FB3FF"/>
<path d="M115.651 17.9801L110.347 43.4969H105.674L110.174 21.8896H99.4882L94.9878 43.4969H90.3151L95.6198 17.9801H115.651Z" fill="#8FB3FF"/>
<path d="M117.068 39.6636C117.362 39.7653 117.7 39.8543 118.083 39.9306C118.479 39.9942 118.881 40.026 119.29 40.026C119.877 40.026 120.413 39.9688 120.899 39.8543C121.396 39.7272 121.875 39.5047 122.335 39.1869C122.807 38.869 123.273 38.4304 123.733 37.871C124.205 37.3116 124.703 36.5996 125.227 35.735L119.366 17.9801H124.212L128.176 31.2153H128.291L135.51 17.9801H140.777L129.421 37.2607C128.642 38.5957 127.857 39.6954 127.065 40.56C126.286 41.4245 125.482 42.111 124.652 42.6196C123.822 43.1282 122.96 43.4778 122.067 43.6685C121.173 43.8719 120.215 43.9736 119.194 43.9736C118.773 43.9736 118.294 43.9418 117.758 43.8783C117.234 43.8147 116.73 43.713 116.245 43.5731L117.068 39.6636Z" fill="#8FB3FF"/>
<path d="M149.758 43.4969H145.086L149.586 21.8896H141.543L142.328 17.9801H163.106L162.302 21.8896H154.259L149.758 43.4969Z" fill="#8FB3FF"/>
<path d="M169.388 28.4881H180.323L182.506 17.9801H187.179L181.874 43.4969H177.201L179.518 32.3977H168.583L166.266 43.4969H161.593L166.898 17.9801H171.571L169.388 28.4881Z" fill="#8FB3FF"/>
<path d="M192.732 43.4969H187.753L193.058 17.9801H197.731L195.145 30.4334C194.66 32.7854 194.137 34.8578 193.575 36.6504H193.651C195.324 34.3238 196.933 32.2769 198.477 30.5096L209.355 17.9801H214.334L209.029 43.4969H204.357L206.942 31.0436C207.44 28.6788 207.963 26.6065 208.512 24.8265H208.436C206.955 26.9243 205.346 28.9713 203.61 30.9673L192.732 43.4969Z" fill="#8FB3FF"/>
<path d="M214.909 43.4969L220.213 17.9801H224.886L222.531 29.3273H222.607L233.217 17.9801H239L226.763 30.8148L234.902 43.4969H229.52L222.109 31.7111H222.033L219.581 43.4969H214.909Z" fill="#8FB3FF"/>
<path d="M83.7656 21.451C82.6676 21.451 81.6399 21.6099 80.6823 21.9278C79.7248 22.2456 78.863 22.6843 78.097 23.2437C77.3438 23.8031 76.6799 24.4642 76.1054 25.227C75.5436 25.9899 75.0712 26.8226 74.6882 27.7253C74.3052 28.6153 74.0179 29.5561 73.8264 30.5478C73.6349 31.5268 73.5392 32.5184 73.5392 33.5228C73.5392 34.8069 73.7115 35.8685 74.0562 36.7077C74.4137 37.5468 74.8989 38.2142 75.5117 38.7101C76.1245 39.1932 76.8395 39.5365 77.6565 39.7399C78.4864 39.9306 79.3673 40.026 80.2993 40.026C81.3207 40.0387 82.3676 39.9497 83.44 39.759C84.5252 39.5556 85.6104 39.2695 86.6956 38.9008L85.853 43.0201C84.8189 43.3761 83.7081 43.624 82.5208 43.7639C81.3335 43.9037 80.261 43.9736 79.3035 43.9736C77.7587 43.9736 76.3415 43.7829 75.0521 43.4015C73.7754 43.0074 72.6774 42.4035 71.7582 41.5898C70.8389 40.7761 70.124 39.7336 69.6133 38.4622C69.1026 37.1908 68.8473 35.6778 68.8473 33.9233C68.8473 32.6774 68.9686 31.406 69.2112 30.1092C69.4665 28.8123 69.8495 27.56 70.3602 26.3522C70.8836 25.1317 71.5348 23.9874 72.3135 22.9195C73.1051 21.8388 74.0435 20.898 75.1287 20.097C76.2139 19.296 77.4714 18.6667 78.9013 18.209C80.3312 17.7386 81.8761 17.5034 83.5358 17.5034C84.4422 17.5034 85.4764 17.586 86.6382 17.7513C87.8127 17.9166 88.9043 18.1645 89.9129 18.495L89.1277 22.3092C88.1702 22.0295 87.2701 21.8197 86.4275 21.6799C85.5849 21.5273 84.6976 21.451 83.7656 21.451Z" stroke="#8FB3FF" stroke-width="0.57263" stroke-miterlimit="22.9256"/>
<path d="M115.651 17.9801L110.347 43.4969H105.674L110.174 21.8896H99.4882L94.9878 43.4969H90.3151L95.6198 17.9801H115.651Z" stroke="#8FB3FF" stroke-width="0.57263" stroke-miterlimit="22.9256"/>
<path d="M117.068 39.6636C117.362 39.7653 117.7 39.8543 118.083 39.9306C118.479 39.9942 118.881 40.026 119.29 40.026C119.877 40.026 120.413 39.9688 120.899 39.8543C121.396 39.7272 121.875 39.5047 122.335 39.1869C122.807 38.869 123.273 38.4304 123.733 37.871C124.205 37.3116 124.703 36.5996 125.227 35.735L119.366 17.9801H124.212L128.176 31.2153H128.291L135.51 17.9801H140.777L129.421 37.2607C128.642 38.5957 127.857 39.6954 127.065 40.56C126.286 41.4245 125.482 42.111 124.652 42.6196C123.822 43.1282 122.96 43.4778 122.067 43.6685C121.173 43.8719 120.215 43.9736 119.194 43.9736C118.773 43.9736 118.294 43.9418 117.758 43.8783C117.234 43.8147 116.73 43.713 116.245 43.5731L117.068 39.6636Z" stroke="#8FB3FF" stroke-width="0.57263" stroke-miterlimit="22.9256"/>
<path d="M149.758 43.4969H145.086L149.586 21.8896H141.543L142.328 17.9801H163.106L162.302 21.8896H154.259L149.758 43.4969Z" stroke="#8FB3FF" stroke-width="0.57263" stroke-miterlimit="22.9256"/>
<path d="M169.388 28.4881H180.323L182.506 17.9801H187.179L181.874 43.4969H177.201L179.518 32.3977H168.583L166.266 43.4969H161.593L166.898 17.9801H171.571L169.388 28.4881Z" stroke="#8FB3FF" stroke-width="0.57263" stroke-miterlimit="22.9256"/>
<path d="M192.732 43.4969H187.753L193.058 17.9801H197.731L195.145 30.4334C194.66 32.7854 194.137 34.8578 193.575 36.6504H193.651C195.324 34.3238 196.933 32.2769 198.477 30.5096L209.355 17.9801H214.334L209.029 43.4969H204.357L206.942 31.0436C207.44 28.6788 207.963 26.6065 208.512 24.8265H208.436C206.955 26.9243 205.346 28.9713 203.61 30.9673L192.732 43.4969Z" stroke="#8FB3FF" stroke-width="0.57263" stroke-miterlimit="22.9256"/>
<path d="M214.909 43.4969L220.213 17.9801H224.886L222.531 29.3273H222.607L233.217 17.9801H239L226.763 30.8148L234.902 43.4969H229.52L222.109 31.7111H222.033L219.581 43.4969H214.909Z" stroke="#8FB3FF" stroke-width="0.57263" stroke-miterlimit="22.9256"/>
</svg>
