<svg width="64" height="64" viewBox="0 0 64 64" fill="none" xmlns="http://www.w3.org/2000/svg">
<path fill-rule="evenodd" clip-rule="evenodd" d="M60.643 33.0906C60.6421 36.7339 59.9026 40.2245 58.339 43.5211C56.6915 46.9948 54.1931 49.7182 50.8738 51.6839C48.9139 52.8445 46.806 53.6116 44.5556 53.9836C43.6399 54.1348 42.7164 54.2626 41.7886 54.2266C39.8456 54.1508 37.9388 53.8443 36.1044 53.1755C35.6606 53.0137 35.2316 52.8117 34.7933 52.6347C34.7346 52.611 34.6527 52.6031 34.5952 52.6244C33.0406 53.2027 31.443 53.6196 29.8065 53.8888C28.7955 54.055 27.7785 54.1972 26.7539 54.2034C25.9403 54.2084 25.1249 54.1459 24.3124 54.0859C23.0088 53.9898 21.7293 53.7456 20.4698 53.3995C18.2179 52.7806 16.1251 51.8164 14.1661 50.5496C11.1023 48.569 8.73244 45.9626 6.98902 42.773C5.68699 40.3911 4.7945 37.8709 4.33519 35.1988C4.15877 34.1727 4.0502 33.1384 4.01531 32.0978C3.88157 28.1199 4.62156 24.3084 6.3337 20.7128C8.15524 16.8877 10.9769 13.9909 14.758 12.0379C16.4208 11.1792 18.1813 10.6046 20.0295 10.305C20.9654 10.1533 21.9096 10.031 22.858 10.0576C24.2866 10.0979 25.6899 10.3383 27.091 10.6245C28.071 10.8247 28.9768 11.1878 29.8814 11.5804C29.9338 11.6033 30.0115 11.6001 30.0667 11.5798C31.3685 11.1022 32.6987 10.7257 34.0604 10.4611C35.066 10.2658 36.0803 10.1373 37.101 10.0439C38.1323 9.94919 39.1573 10.0256 40.1834 10.1052C42.1498 10.2579 44.0588 10.6774 45.9077 11.3592C48.812 12.4303 51.3987 14.0148 53.6454 16.1419C55.4034 17.8065 56.7897 19.7456 57.9086 21.8817C59.0572 24.0743 59.8526 26.3869 60.2892 28.8205C60.4836 29.9053 60.6092 30.999 60.6414 32.1015C60.651 32.431 60.643 32.761 60.643 33.0906V33.0906ZM32.7144 13.2244C32.9042 13.3987 33.0675 13.5673 33.2496 13.7129C34.1189 14.4083 34.916 15.1767 35.6356 16.0248C36.9781 17.6072 37.991 19.3797 38.7123 21.3199C38.7465 21.412 38.7788 21.4688 38.8958 21.4826C39.3507 21.5366 39.8103 21.5776 40.256 21.677C43.9206 22.4947 46.6089 24.5833 48.3108 27.9088C49.2698 29.7831 49.6877 31.7893 49.6272 33.8947C49.5985 34.9036 49.4543 35.8942 49.2003 36.8701C48.8494 38.2183 48.2804 39.4804 47.6597 40.7204C46.4757 43.0859 44.9132 45.1823 43.0503 47.0575C41.4897 48.6288 39.7369 49.9578 37.8316 51.0893C37.7816 51.1191 37.7334 51.1518 37.6637 51.1963C37.7275 51.2212 37.763 51.2378 37.8001 51.2486C38.9791 51.5932 40.1831 51.784 41.4105 51.8266C42.5308 51.8655 43.6424 51.7748 44.7397 51.5529C47.966 50.9 50.6956 49.3476 52.9652 46.9878C54.6002 45.2879 55.8127 43.3146 56.692 41.1352C57.6975 38.6431 58.2061 36.0448 58.2987 33.368C58.3242 32.636 58.2478 31.8979 58.181 31.1661C58.0757 30.0182 57.8541 28.8884 57.5856 27.7673C56.9633 25.1713 55.8548 22.7921 54.3473 20.5954C53.6696 19.6077 52.875 18.7136 52.0099 17.8828C50.3692 16.3079 48.5308 15.0243 46.4299 14.1268C44.8314 13.4441 43.1711 12.9698 41.4604 12.6699C40.5222 12.5056 39.5795 12.3718 38.6229 12.3656C37.5045 12.3583 36.3913 12.4275 35.2882 12.6083C34.4225 12.7502 33.5534 12.8895 32.7144 13.2244V13.2244ZM26.9581 13.0393C26.8674 13.0105 26.8006 12.9874 26.7329 12.968C25.7948 12.7005 24.8384 12.5322 23.866 12.4591C23.0513 12.3976 22.2341 12.385 21.4235 12.4904C20.1585 12.6547 18.9207 12.9446 17.7157 13.3658C15.0562 14.2957 12.7894 15.8007 10.9646 17.9488C9.32354 19.881 8.22294 22.0999 7.47266 24.5033C7.05617 25.8376 6.76785 27.2001 6.56168 28.581C6.395 29.6975 6.29269 30.8183 6.36943 31.948C6.4641 33.3419 6.6722 34.7202 6.98596 36.082C7.36381 37.7222 7.87734 39.3183 8.62818 40.8298C9.69875 42.9848 11.1119 44.8917 12.8711 46.5401C14.1741 47.7609 15.6116 48.7991 17.208 49.6068C18.7959 50.4103 20.4744 50.9659 22.2122 51.3436C23.8856 51.7074 25.5723 51.9234 27.2923 51.8165C28.5976 51.7354 29.8853 51.5557 31.1535 51.2392C31.4328 51.1696 31.7102 51.0922 32.0128 51.0117C31.96 50.9687 31.9341 50.9453 31.9059 50.9249C29.9855 49.5382 28.4599 47.8019 27.2805 45.7571C26.7568 44.849 26.3107 43.9056 25.9469 42.9234C25.9183 42.846 25.8977 42.7816 25.7878 42.7733C24.8028 42.698 23.8423 42.4983 22.9137 42.1632C20.774 41.3907 18.961 40.1554 17.5819 38.3377C16.161 36.4652 15.3387 34.3505 15.0968 32.0147C14.949 30.5889 15.0305 29.1745 15.3674 27.7814C15.814 25.9357 16.5369 24.1946 17.4762 22.5471C19.5314 18.9427 22.34 16.0401 25.8075 13.7609C26.1767 13.5181 26.5561 13.2908 26.9581 13.0393V13.0393ZM27.3281 36.708C27.3281 36.9514 27.3213 37.1949 27.3292 37.4382C27.3599 38.3735 27.4778 39.2982 27.6648 40.2151C27.6874 40.3257 27.7232 40.362 27.8348 40.3361C28.2707 40.2346 28.7127 40.1556 29.1438 40.0369C31.0269 39.5179 32.6863 38.6053 34.0658 37.2145C35.0844 36.1877 35.8142 34.9762 36.3365 33.6368C37.0606 31.7794 37.4833 29.8635 37.4334 27.8609C37.4208 27.359 37.4057 26.855 37.3472 26.3572C37.255 25.5721 37.1246 24.7914 37.0119 24.0087C37 23.9262 36.9597 23.8968 36.8778 23.9081C36.7163 23.9301 36.5541 23.9464 36.3925 23.9677C34.9431 24.1599 33.6197 24.6753 32.4054 25.4858C30.7245 26.6076 29.5395 28.1325 28.7118 29.9506C27.7346 32.0973 27.3267 34.363 27.3281 36.708ZM25.1858 40.3102C25.1744 40.2151 25.1719 40.1696 25.1632 40.1251C24.7939 38.2529 24.73 36.3698 24.9509 34.4752C25.1381 32.8701 25.5292 31.316 26.1181 29.8113C26.3438 29.2345 26.4984 28.6468 26.4657 28.0198C26.4396 27.5163 26.3844 27.02 26.2086 26.5421C25.4933 24.5978 23.6495 23.552 21.7504 23.8411C20.0184 24.1048 18.7609 25.0946 18.1449 26.7676C17.6829 28.0221 17.4211 29.3271 17.4173 30.668C17.4135 31.8991 17.6048 33.1077 18.0314 34.2656C19.0684 37.0798 20.9761 39.0251 23.8629 39.9651C24.286 40.1028 24.7251 40.1914 25.1858 40.3102V40.3102ZM39.4779 23.9503C39.488 24.0328 39.4901 24.0731 39.4979 24.1123C39.727 25.2397 39.8338 26.38 39.8434 27.5288C39.8516 28.484 39.7622 29.4334 39.6451 30.3813C39.474 31.7668 39.1541 33.1136 38.6328 34.4111C38.5195 34.6929 38.363 34.9644 38.295 35.2564C38.0532 36.2942 38.1909 37.2981 38.6937 38.2358C39.4163 39.5828 40.5546 40.3431 42.085 40.4556C43.286 40.5437 44.3397 40.1351 45.2445 39.3519C45.6669 38.9865 46.0517 38.5734 46.2605 38.0525C46.8063 36.6921 47.1429 35.2778 47.1944 33.8097C47.2357 32.6399 47.0532 31.4935 46.7176 30.373C46.2762 28.8982 45.5413 27.5905 44.4501 26.4926C43.3274 25.363 41.9817 24.6113 40.4498 24.1851C40.1381 24.0983 39.8206 24.0324 39.4779 23.9503V23.9503ZM28.4284 42.6949C28.4284 42.72 28.4249 42.7358 28.4291 42.7492C28.4395 42.7831 28.4524 42.8162 28.4659 42.8492C28.9532 44.0285 29.5835 45.1261 30.362 46.1391C31.545 47.6784 32.9747 48.9382 34.66 49.9096C34.7374 49.9544 34.8029 49.9789 34.898 49.9347C35.9666 49.4385 36.9987 48.8768 37.9695 48.2102C39.9393 46.8578 41.6638 45.2418 43.1556 43.3794C43.3323 43.1587 43.501 42.9318 43.6699 42.7124C40.0816 43.1527 37.6056 41.7063 36.1687 38.4182C35.1795 39.5502 34.0231 40.5022 32.695 41.2423C31.3622 41.9852 29.9405 42.4722 28.4284 42.6949V42.6949ZM36.2146 21.5644C36.1851 21.4859 36.1691 21.4328 36.1458 21.3831C35.9268 20.9199 35.7239 20.4482 35.4841 19.9959C34.2037 17.5799 32.3624 15.7024 29.9832 14.3449C29.895 14.2945 29.8238 14.2858 29.7308 14.3342C29.5144 14.4468 29.29 14.5441 29.0722 14.654C25.8617 16.2733 23.2048 18.5422 21.069 21.4218C21.0373 21.4645 21.0085 21.5093 20.9565 21.5849C22.6013 21.2755 24.1172 21.5113 25.5555 22.3022C27.0033 23.0983 27.967 24.2759 28.4741 25.8794C30.5159 23.4403 33.0951 22.0362 36.2146 21.5644V21.5644Z" fill="#8FB3FF" stroke="#8FB3FF" stroke-width="1.6231" stroke-miterlimit="22.9256"/>
</svg>
