<svg width="32" height="32" viewBox="0 0 32 32" fill="none" xmlns="http://www.w3.org/2000/svg">
<path fill-rule="evenodd" clip-rule="evenodd" d="M30.9983 16.0066C30.9979 17.901 30.6062 19.7161 29.7782 21.4302C28.9056 23.2365 27.5825 24.6526 25.8245 25.6747C24.7866 26.2782 23.6702 26.6771 22.4784 26.8705C21.9934 26.9491 21.5044 27.0155 21.013 26.9968C19.984 26.9574 18.9741 26.7981 18.0026 26.4503C17.7676 26.3662 17.5404 26.2611 17.3082 26.1691C17.2772 26.1567 17.2338 26.1526 17.2033 26.1637C16.38 26.4644 15.5339 26.6812 14.6672 26.8212C14.1318 26.9076 13.5932 26.9816 13.0506 26.9848C12.6196 26.9874 12.1878 26.9548 11.7575 26.9237C11.0671 26.8737 10.3895 26.7467 9.72246 26.5668C8.52983 26.2449 7.42149 25.7436 6.38398 25.0849C4.76138 24.055 3.50632 22.6998 2.583 21.0412C1.89344 19.8027 1.42077 18.4923 1.17752 17.1028C1.08409 16.5693 1.02659 16.0315 1.00811 15.4903C0.937281 13.4219 1.32918 11.4401 2.23593 9.57039C3.20063 7.58145 4.69498 6.07517 6.69747 5.05968C7.57809 4.61316 8.51046 4.31436 9.4893 4.15858C9.98493 4.07969 10.485 4.01612 10.9872 4.02994C11.7439 4.05089 12.487 4.17592 13.2291 4.32472C13.7481 4.42881 14.2278 4.61763 14.7069 4.82178C14.7346 4.83365 14.7758 4.83199 14.805 4.82148C15.4944 4.57313 16.1989 4.37734 16.9201 4.23978C17.4527 4.13821 17.9898 4.07141 18.5304 4.02282C19.0766 3.97358 19.6194 4.01331 20.1629 4.0547C21.2043 4.1341 22.2153 4.35222 23.1945 4.70674C24.7326 5.26369 26.1025 6.08763 27.2924 7.19367C28.2234 8.05922 28.9576 9.0675 29.5502 10.1782C30.1585 11.3183 30.5798 12.5208 30.8109 13.7863C30.9139 14.3503 30.9804 14.919 30.9975 15.4923C31.0026 15.6636 30.9983 15.8352 30.9983 16.0066V16.0066ZM16.2073 5.67659C16.3078 5.76722 16.3943 5.85489 16.4907 5.93062C16.9511 6.2922 17.3732 6.69179 17.7543 7.13277C18.4653 7.95555 19.0017 8.87725 19.3838 9.88611C19.4019 9.93398 19.419 9.9635 19.481 9.97069C19.7218 9.99877 19.9653 10.0201 20.2013 10.0718C22.1421 10.497 23.5658 11.583 24.4671 13.3121C24.9751 14.2868 25.1964 15.33 25.1644 16.4247C25.1491 16.9493 25.0728 17.4644 24.9383 17.9719C24.7524 18.6729 24.4511 19.3291 24.1224 19.9739C23.4953 21.2039 22.6678 22.294 21.6812 23.2691C20.8547 24.0861 19.9264 24.7772 18.9174 25.3655C18.8909 25.381 18.8653 25.398 18.8284 25.4211C18.8622 25.4341 18.881 25.4427 18.9006 25.4484C19.5251 25.6275 20.1627 25.7267 20.8127 25.7489C21.4061 25.7691 21.9948 25.722 22.5759 25.6066C24.2845 25.2671 25.7302 24.4599 26.9321 23.2328C27.798 22.3489 28.4402 21.3228 28.9059 20.1896C29.4384 18.8938 29.7078 17.5427 29.7568 16.1508C29.7703 15.7702 29.7299 15.3864 29.6944 15.0059C29.6387 14.409 29.5213 13.8215 29.3791 13.2386C29.0496 11.8887 28.4625 10.6516 27.6641 9.50935C27.3052 8.99581 26.8844 8.53086 26.4262 8.09888C25.5573 7.27998 24.5837 6.61254 23.471 6.14586C22.6245 5.79083 21.7452 5.54421 20.8392 5.38829C20.3423 5.30284 19.843 5.2333 19.3364 5.23006C18.7441 5.22625 18.1545 5.26225 17.5703 5.35626C17.1119 5.43005 16.6516 5.50246 16.2073 5.67659V5.67659ZM13.1587 5.58034C13.1106 5.56537 13.0753 5.55336 13.0394 5.54328C12.5426 5.40421 12.0361 5.31666 11.5211 5.27865C11.0897 5.24669 10.6568 5.24015 10.2275 5.29494C9.55762 5.38038 8.90207 5.5311 8.2639 5.75015C6.8554 6.23368 5.65488 7.01623 4.6885 8.13321C3.81936 9.1379 3.23648 10.2917 2.83914 11.5414C2.61856 12.2352 2.46586 12.9437 2.35668 13.6617C2.2684 14.2423 2.21422 14.8251 2.25486 15.4125C2.30499 16.1373 2.41521 16.8539 2.58138 17.5621C2.78149 18.4149 3.05346 19.2449 3.4511 20.0308C4.01808 21.1514 4.76646 22.1429 5.69818 23C6.38825 23.6348 7.14953 24.1747 7.99502 24.5946C8.83596 25.0124 9.72489 25.3014 10.6453 25.4977C11.5315 25.6869 12.4248 25.7992 13.3357 25.7436C14.027 25.7014 14.7089 25.608 15.3806 25.4435C15.5285 25.4073 15.6754 25.367 15.8357 25.3252C15.8077 25.3028 15.794 25.2906 15.7791 25.28C14.762 24.559 13.9541 23.6562 13.3294 22.5929C13.0521 22.1207 12.8158 21.6301 12.6232 21.1194C12.608 21.0792 12.5971 21.0457 12.5389 21.0414C12.0172 21.0022 11.5086 20.8984 11.0168 20.7241C9.88355 20.3225 8.92342 19.6801 8.193 18.735C7.44049 17.7613 7.005 16.6617 6.8769 15.4472C6.79863 14.7058 6.84178 13.9703 7.02024 13.2459C7.25672 12.2862 7.63957 11.3809 8.13704 10.5242C9.2255 8.65 10.7129 7.14069 12.5493 5.95561C12.7449 5.82934 12.9458 5.71114 13.1587 5.58034V5.58034ZM13.3546 17.8876C13.3546 18.0141 13.351 18.1408 13.3552 18.2672C13.3715 18.7536 13.4339 19.2344 13.5329 19.7112C13.5449 19.7687 13.5639 19.7875 13.623 19.7741C13.8539 19.7213 14.0879 19.6802 14.3162 19.6185C15.3135 19.3486 16.1924 18.8741 16.923 18.1509C17.4624 17.617 17.8489 16.9871 18.1255 16.2906C18.509 15.3248 18.7329 14.3286 18.7064 13.2873C18.6998 13.0263 18.6918 12.7642 18.6608 12.5054C18.612 12.0971 18.5429 11.6912 18.4832 11.2842C18.4769 11.2413 18.4556 11.226 18.4122 11.2319C18.3267 11.2433 18.2408 11.2518 18.1552 11.2629C17.3876 11.3628 16.6867 11.6308 16.0436 12.0523C15.1534 12.6356 14.5258 13.4285 14.0875 14.3739C13.5699 15.4901 13.3539 16.6682 13.3546 17.8876ZM12.2201 19.7606C12.214 19.7112 12.2127 19.6875 12.2081 19.6644C12.0125 18.6909 11.9787 17.7117 12.0957 16.7265C12.1948 15.8919 12.4019 15.0838 12.7138 14.3014C12.8334 14.0015 12.9152 13.6959 12.8979 13.3699C12.8841 13.1081 12.8549 12.85 12.7617 12.6015C12.3829 11.5905 11.4065 11.0467 10.4007 11.197C9.48341 11.3342 8.8174 11.8488 8.49117 12.7188C8.24652 13.3711 8.10789 14.0496 8.10583 14.7469C8.10384 15.387 8.20515 16.0155 8.4311 16.6176C8.98026 18.0809 9.9906 19.0924 11.5195 19.5812C11.7435 19.6528 11.9761 19.6989 12.2201 19.7606V19.7606ZM19.7892 11.2538C19.7946 11.2967 19.7957 11.3177 19.7998 11.3381C19.9211 11.9243 19.9777 12.5172 19.9828 13.1146C19.9871 13.6113 19.9398 14.1049 19.8778 14.5978C19.7872 15.3182 19.6177 16.0186 19.3417 16.6932C19.2817 16.8398 19.1988 16.9809 19.1628 17.1327C19.0347 17.6724 19.1076 18.1944 19.3739 18.682C19.7566 19.3824 20.3594 19.7778 21.17 19.8362C21.806 19.8821 22.3641 19.6696 22.8432 19.2623C23.067 19.0723 23.2707 18.8575 23.3813 18.5867C23.6704 17.8793 23.8486 17.1439 23.8759 16.3805C23.8978 15.7722 23.8011 15.1761 23.6234 14.5935C23.3896 13.8266 23.0004 13.1467 22.4225 12.5758C21.8279 11.9884 21.1153 11.5976 20.3039 11.3759C20.1389 11.3308 19.9707 11.2965 19.7892 11.2538V11.2538ZM13.9374 21.0006C13.9374 21.0137 13.9355 21.0219 13.9377 21.0288C13.9433 21.0465 13.9501 21.0637 13.9572 21.0808C14.2153 21.6941 14.5491 22.2648 14.9614 22.7915C15.5879 23.5919 16.3451 24.247 17.2376 24.7521C17.2786 24.7754 17.3133 24.7881 17.3637 24.7651C17.9296 24.5072 18.4762 24.215 18.9904 23.8684C20.0336 23.1652 20.9469 22.3249 21.7369 21.3565C21.8305 21.2418 21.9199 21.1238 22.0093 21.0097C20.109 21.2387 18.7976 20.4866 18.0367 18.7768C17.5128 19.3654 16.9004 19.8605 16.197 20.2453C15.4911 20.6316 14.7382 20.8848 13.9374 21.0006V21.0006ZM18.061 10.0132C18.0454 9.97242 18.0369 9.94478 18.0245 9.91894C17.9086 9.67808 17.8011 9.43283 17.6741 9.19766C16.996 7.94138 16.0208 6.96512 14.7608 6.25924C14.7141 6.23303 14.6764 6.2285 14.6271 6.2537C14.5125 6.31222 14.3937 6.36282 14.2783 6.41998C12.578 7.26198 11.1709 8.44175 10.0398 9.9391C10.023 9.96127 10.0078 9.98459 9.98022 10.0239C10.8513 9.86301 11.6541 9.9856 12.4158 10.3969C13.1826 10.8108 13.693 11.4231 13.9616 12.2569C15.0429 10.9886 16.4088 10.2586 18.061 10.0132V10.0132Z" fill="#8FB3FF" stroke="#8FB3FF" stroke-width="1.6231" stroke-miterlimit="22.9256"/>
</svg>
